<?xml version="1.0" standalone="no"?>
<!DOCTYPE svg PUBLIC "-//W3C//DTD SVG 20010904//EN"
 "http://www.w3.org/TR/2001/REC-SVG-20010904/DTD/svg10.dtd">
<svg version="1.0" xmlns="http://www.w3.org/2000/svg"
 width="500.000000pt" height="500.000000pt" viewBox="0 0 500.000000 500.000000"
 preserveAspectRatio="xMidYMid meet">

<g transform="translate(0.000000,500.000000) scale(0.100000,-0.100000)"
fill="#000000" stroke="none">
<path d="M2120 3331 c-324 -69 -608 -290 -759 -590 -99 -196 -131 -368 -112
-610 6 -86 13 -183 14 -216 2 -57 3 -60 29 -63 21 -3 30 -13 48 -58 64 -156
246 -370 400 -470 375 -242 855 -241 1223 3 176 117 333 310 414 512 l43 106
0 -47 c0 -53 5 -56 72 -38 97 27 155 132 128 230 -15 55 -72 117 -121 132
l-39 11 0 58 c0 31 -3 66 -7 76 -7 17 -6 17 17 2 14 -9 26 -26 28 -38 3 -19
10 -21 63 -21 56 0 59 1 59 24 0 80 -86 166 -165 166 -19 0 -27 13 -55 92
-136 391 -450 668 -840 742 -113 22 -329 20 -440 -3z m90 -38 c0 -5 -34 -21
-76 -36 -42 -16 -74 -30 -72 -32 2 -2 49 13 106 32 57 19 107 33 112 31 5 -2
-21 -27 -59 -57 -38 -29 -95 -84 -126 -122 -31 -38 -60 -69 -64 -69 -24 0 -71
24 -71 36 0 24 36 87 64 113 14 14 26 33 26 43 0 31 58 58 148 67 6 0 12 -2
12 -6z m139 -20 c1 9 7 17 14 17 22 0 37 -23 38 -59 2 -31 3 -32 6 -8 2 15 8
27 13 27 11 0 109 -122 135 -167 15 -26 16 -34 6 -47 -12 -14 -10 -16 8 -16
13 0 29 -12 41 -32 21 -35 28 -31 9 4 -16 30 5 40 76 34 33 -2 52 -2 42 1 -9
2 -15 8 -12 12 2 5 -26 6 -64 3 l-68 -4 -39 63 c-21 35 -63 90 -93 122 -30 31
-52 59 -49 62 3 3 24 -2 48 -10 53 -19 62 -19 30 1 -24 14 -22 15 35 10 40 -4
53 -3 40 3 -36 17 41 13 80 -3 42 -18 46 -29 8 -21 -16 3 -3 -4 27 -16 30 -12
61 -26 68 -32 7 -6 25 -12 40 -13 22 -2 18 2 -20 22 -60 31 -73 49 -27 39 54
-11 112 -40 138 -69 27 -29 20 -33 -19 -11 -44 25 -46 16 -2 -11 23 -14 39
-30 36 -36 -4 -6 -1 -9 7 -6 8 3 23 1 34 -5 18 -8 17 -7 -2 12 -25 24 -30 41
-11 41 23 0 188 -142 188 -163 0 -5 -21 8 -47 29 -105 83 -93 67 25 -35 39
-35 72 -67 72 -71 0 -5 -20 -2 -46 7 -25 8 -48 12 -51 9 -4 -3 -1 -6 7 -6 7 0
39 -12 72 -27 62 -27 75 -45 122 -156 l16 -38 -33 -31 -32 -31 32 22 c30 20
32 20 43 4 9 -15 10 -12 5 15 -11 57 14 36 50 -40 34 -76 61 -156 54 -162 -2
-2 -16 -6 -31 -10 -26 -6 -26 -5 -38 65 -7 39 -14 68 -16 66 -3 -2 0 -34 6
-71 l11 -67 -33 -27 c-42 -36 -59 -34 -80 8 -36 73 -65 159 -57 169 5 6 6 9 3
6 -4 -3 -13 0 -21 6 -10 9 -13 8 -13 -4 0 -8 -3 -17 -7 -20 -5 -2 -2 -2 5 0
12 3 40 -48 57 -104 6 -23 5 -23 -84 -23 -49 0 -101 4 -115 10 -32 12 -34 43
-4 64 l22 16 -21 0 c-18 0 -22 7 -26 43 l-4 42 -1 -47 c-1 -30 -7 -48 -14 -49
-10 0 -10 -2 0 -6 6 -2 12 -18 12 -35 0 -26 -3 -29 -22 -25 -13 3 -49 9 -81
12 -63 8 -66 13 -15 26 30 8 29 8 -9 4 -33 -4 -44 -1 -52 12 -9 16 -10 16 -11
2 0 -25 -16 -27 -140 -18 -63 4 -130 8 -147 8 -29 1 -33 4 -34 29 l-1 27 -7
-25 c-6 -23 -12 -25 -74 -28 l-67 -3 -2 48 -2 48 -3 -47 -4 -48 -47 -1 c-26 0
-56 -2 -67 -5 -34 -6 -240 -6 -268 1 -22 6 -27 13 -29 39 l-1 31 -4 -32 c-5
-37 -23 -45 -23 -10 -1 20 -2 20 -11 4 -8 -14 -19 -16 -47 -12 l-37 5 33 -10
c21 -7 32 -17 32 -30 0 -15 -9 -20 -47 -25 -27 -3 -61 -10 -78 -15 -59 -18
-105 -23 -105 -11 0 7 -26 11 -71 11 l-71 0 7 28 c3 15 17 51 30 79 19 42 28
52 42 47 14 -5 15 -4 4 4 -19 13 -8 39 56 134 78 117 141 182 187 195 35 10
37 12 13 12 -27 1 -27 2 23 46 31 28 56 42 65 38 10 -3 15 -1 13 8 -3 12 84
79 102 79 5 0 -1 -23 -13 -50 -21 -47 -24 -50 -52 -46 l-30 5 28 -15 c23 -12
26 -18 16 -30 -6 -8 -21 -15 -33 -15 -20 -2 -20 -2 2 -6 12 -2 22 -12 23 -21
0 -13 2 -12 9 4 6 15 20 23 47 26 47 6 58 1 41 -20 -8 -11 -4 -10 11 3 15 13
36 19 62 19 21 -1 39 2 39 7 0 5 -16 9 -35 9 -19 0 -35 4 -35 8 0 20 156 174
213 212 61 40 62 40 69 18 4 -17 6 -18 7 -5z m-313 10 c-9 -10 -189 -73 -193
-69 -7 7 81 45 137 60 67 18 65 18 56 9z m4 -30 c-1 -25 -160 -143 -192 -143
-6 0 -21 8 -32 17 -18 16 -18 15 1 -8 l23 -25 -60 -52 c-32 -29 -69 -56 -82
-61 -13 -6 -17 -10 -10 -10 6 -1 -17 -37 -51 -81 -35 -45 -81 -110 -102 -145
-21 -36 -41 -65 -46 -65 -4 0 -13 8 -18 18 -6 9 -11 13 -11 8 0 -5 -12 1 -27
15 -26 23 -26 23 2 -13 17 -20 36 -37 43 -37 15 -1 15 -7 2 -32 -6 -10 -17
-19 -24 -19 -8 0 -16 -18 -20 -46 -9 -66 -19 -74 -87 -74 -51 0 -59 3 -59 18
0 40 85 252 101 252 4 0 9 -3 12 -7 2 -5 2 -2 0 5 -6 27 27 82 66 110 23 17
36 32 30 34 -14 5 48 77 93 110 l29 20 -31 -51 c-18 -28 -41 -57 -52 -65 -14
-10 -16 -15 -6 -18 18 -7 71 34 56 43 -22 14 108 165 171 198 12 7 25 9 30 7
5 -3 12 1 15 9 12 31 237 114 236 88z m1170 -323 c12 -16 17 -30 11 -30 -5 0
-19 14 -31 30 -12 17 -17 30 -11 30 5 0 19 -13 31 -30z m66 -97 c16 -21 18
-37 4 -28 -13 8 -33 45 -24 45 4 0 13 -8 20 -17z m-1416 -293 c0 -5 -9 -10
-21 -10 -11 0 -17 5 -14 10 3 6 13 10 21 10 8 0 14 -4 14 -10z m415 0 c4 -6
-25 -9 -82 -8 -77 1 -82 2 -38 8 79 11 113 11 120 0z m145 -5 c0 -13 -11 -15
-62 -13 -38 2 -63 8 -66 16 -3 9 14 12 62 12 53 0 66 -3 66 -15z m159 -1 c2
-2 -28 -4 -67 -4 -40 0 -72 4 -72 10 0 8 129 3 139 -6z m-326 -25 c29 -16 20
-55 -24 -106 -48 -55 -66 -93 -80 -169 -12 -63 2 -157 32 -215 l19 -38 -33 -4
c-32 -4 -32 -4 5 -5 58 -3 57 -22 -2 -22 -32 0 -49 4 -45 10 4 6 -6 10 -23 10
-27 0 -32 7 -66 81 -21 45 -36 82 -34 83 2 1 16 8 32 16 38 19 73 74 82 125 7
47 -10 118 -37 156 -25 36 -99 69 -154 69 -47 0 -61 15 -22 23 36 8 330 -4
350 -14z m511 -1 c20 -31 54 -276 58 -418 l3 -115 -56 -3 -56 -3 24 49 c64
130 41 294 -56 395 -50 53 -104 79 -178 85 -35 3 -61 8 -57 11 5 6 135 16 251
19 44 2 55 -1 67 -20z m91 2 c17 -7 15 -9 -12 -9 -32 -1 -33 -2 -33 -48 0 -25
-2 -44 -5 -41 -8 8 -23 97 -17 103 8 7 44 5 67 -5z m-475 -14 c-25 -7 -55 -18
-68 -25 -20 -11 -22 -10 -22 14 0 24 2 25 68 24 l67 -1 -45 -12z m-708 -63 l3
-48 48 -3 49 -3 -7 -52 c-10 -82 -12 -86 -53 -89 l-37 -3 -3 -107 c-2 -78 -6
-108 -15 -108 -28 0 -162 42 -169 53 -4 7 -8 20 -8 30 0 15 11 17 90 17 l91 0
-3 58 -3 57 -101 3 -101 3 -7 37 c-3 20 -6 51 -6 69 l0 32 68 3 67 3 5 40 c4
31 10 41 30 46 54 15 59 12 62 -38z m1550 -94 c-2 -53 2 -81 18 -116 11 -25
21 -62 22 -82 l1 -36 4 33 c5 34 14 40 31 19 31 -37 -20 -79 -133 -111 -33 -9
-68 -19 -77 -22 -17 -5 -18 5 -18 120 l0 126 -60 0 c-59 0 -60 1 -61 28 -1 15
-7 -16 -15 -68 -8 -52 -23 -129 -32 -170 -15 -64 -21 -75 -40 -78 -21 -3 -22
0 -22 60 -1 63 -12 195 -25 296 l-8 52 72 0 71 0 2 -32 1 -33 4 33 4 32 120 0
c116 0 119 1 119 22 0 18 3 19 12 10 9 -9 12 -37 10 -83z m22 66 c-4 -8 -8
-15 -10 -15 -2 0 -4 7 -4 15 0 8 4 15 10 15 5 0 7 -7 4 -15z m-682 -51 c56
-36 82 -94 83 -179 0 -59 -4 -78 -28 -117 -15 -27 -41 -55 -57 -63 -34 -17
-126 -20 -136 -4 -4 8 -9 7 -14 -2 -14 -22 -70 10 -101 60 -26 40 -29 54 -29
123 0 113 38 178 118 203 l24 7 -6 -89 c-8 -123 -8 -140 2 -213 l9 -65 1 54
c2 43 5 52 17 47 8 -3 27 0 40 6 52 23 41 103 -15 114 l-30 7 0 74 0 75 43 -7
c23 -4 59 -18 79 -31z m-1130 -44 c3 -67 2 -70 -19 -70 -21 0 -23 5 -23 54 0
63 7 86 25 86 9 0 14 -21 17 -70z m432 33 c3 -21 6 -53 6 -70 l0 -33 -53 0
-54 0 9 58 c13 81 14 82 51 82 32 0 35 -3 41 -37z m101 12 c46 -45 19 -115
-44 -115 -26 0 -29 3 -35 46 -11 86 -9 94 24 94 19 0 40 -9 55 -25z m1465 0
c0 -25 -1 -25 -25 -9 -14 9 -25 20 -25 25 0 5 11 9 25 9 20 0 25 -5 25 -25z
m-21 -40 c38 -43 41 -75 8 -75 -41 0 -67 27 -67 71 0 50 17 51 59 4z m-469
-235 c0 -85 -1 -90 -21 -90 -17 0 -20 4 -16 22 4 12 12 53 19 90 7 37 14 68
15 68 2 0 3 -40 3 -90z m404 51 c3 -5 -1 -11 -9 -15 -9 -3 -15 0 -15 9 0 16
16 20 24 6z m-1880 -27 c9 -25 0 -28 -34 -14 -44 18 -46 30 -7 30 23 0 37 -6
41 -16z m1963 -43 c-8 -73 -50 -207 -90 -286 -27 -54 -31 -58 -38 -37 -12 32
-15 27 -11 -16 3 -30 -2 -45 -23 -71 -28 -33 -83 -67 -92 -57 -3 3 4 28 16 55
33 78 24 74 -14 -7 -27 -58 -41 -75 -67 -87 -29 -12 -30 -14 -10 -15 l24 0
-19 -31 c-64 -100 -160 -182 -192 -162 -14 9 -17 7 -17 -10 1 -17 -13 -27 -71
-51 -40 -16 -71 -31 -69 -33 2 -2 21 3 41 11 46 20 66 21 40 3 -30 -20 -95
-44 -140 -50 l-40 -6 30 15 30 14 -33 -6 c-31 -5 -33 -4 -24 13 15 27 50 56
124 102 59 37 70 41 90 30 21 -11 22 -11 9 5 -13 15 -10 21 20 52 19 20 56 48
82 64 27 15 44 29 38 31 -6 2 6 24 26 49 20 25 65 89 100 143 63 97 89 115 79
54 -5 -27 -5 -29 4 -9 10 23 19 27 36 15 6 -5 -4 6 -22 22 -27 26 -31 34 -21
50 6 11 16 25 22 30 7 6 23 52 36 104 21 82 27 96 54 112 16 11 45 19 64 19
l34 0 -6 -59z m-1537 3 c36 -82 29 -91 -52 -78 l-38 7 0 58 0 59 35 0 c31 0
36 -4 55 -46z m1606 1 c9 -38 -3 -70 -31 -83 -14 -7 -29 -12 -34 -12 -4 0 -1
31 7 69 14 63 17 69 33 60 11 -5 22 -21 25 -34z m-2029 -5 c5 0 33 -66 33 -80
0 -6 -24 -10 -55 -10 l-55 0 0 60 0 60 36 -15 c20 -8 38 -15 41 -15z m1791
-57 c-3 -32 -15 -82 -28 -111 -24 -55 -24 -55 -75 -37 -11 3 -8 -1 8 -10 15
-8 27 -21 27 -29 0 -20 -113 -185 -170 -248 -32 -37 -60 -58 -73 -58 -16 0
-18 -3 -9 -9 10 -6 1 -19 -35 -50 -26 -22 -53 -41 -59 -41 -7 0 -14 -6 -17
-14 -3 -7 -29 -28 -57 -45 l-53 -32 7 28 c7 27 6 26 -18 -8 -13 -20 -35 -43
-48 -51 -27 -18 -157 -63 -208 -72 l-35 -7 30 22 c37 28 149 141 190 191 29
36 31 37 65 25 30 -11 35 -17 33 -42 l-2 -29 19 32 c11 18 20 39 20 47 0 8 8
15 18 16 10 0 12 3 5 6 -7 2 -13 12 -13 21 0 13 -4 11 -16 -6 -11 -16 -25 -22
-55 -22 l-41 0 22 35 c12 19 19 35 17 35 -3 0 -15 -16 -28 -36 l-22 -36 -71 5
c-41 4 -60 2 -46 -2 l25 -8 -30 -5 c-17 -3 0 -6 38 -7 l68 -1 -22 -32 c-38
-53 -131 -143 -189 -181 -64 -43 -70 -44 -71 -14 l-2 22 -4 -22 c-5 -26 -7
-27 -34 -13 -12 7 -19 22 -20 43 -1 27 -2 29 -7 9 -7 -22 -8 -21 -48 20 -43
45 -114 144 -114 159 0 5 17 10 38 11 l37 1 -35 5 c-33 5 -34 5 -10 12 22 7
21 8 -12 9 -45 1 -54 13 -104 133 -31 71 -105 306 -104 326 1 4 12 -14 26 -40
l24 -48 65 0 c70 0 75 5 50 50 -8 14 -14 28 -15 33 0 4 31 7 69 7 51 0 74 -5
92 -19 31 -24 97 -56 130 -64 27 -7 27 -7 24 -94 -3 -84 -2 -80 11 33 l5 51
67 5 c72 5 138 32 184 76 25 23 32 24 84 18 31 -3 61 -9 67 -13 6 -3 7 -35 4
-79 -5 -62 -14 -92 -56 -179 -27 -58 -48 -105 -46 -105 3 0 23 35 44 78 39 74
40 76 42 42 1 -22 6 -2 15 51 7 47 22 107 33 133 19 42 24 47 48 44 23 -2 29
-8 31 -35 l3 -33 65 0 c50 0 64 3 64 15 0 12 5 13 26 4 15 -5 29 -8 31 -5 2 2
-10 8 -26 14 -30 11 -31 13 -31 70 l0 59 83 25 c116 36 110 38 105 -29z
m-1702 27 c16 -5 48 -14 72 -20 l42 -11 0 -48 c0 -47 -1 -48 -39 -59 -53 -16
-51 -17 -51 33 0 43 -1 45 -30 45 -24 0 -33 6 -40 26 -18 47 -10 53 46 34z
m1384 -79 c0 -25 -3 -28 -25 -23 -39 7 -33 52 7 52 13 0 18 -8 18 -29z m-1055
10 c15 -6 11 -9 -20 -14 -58 -10 -65 -9 -65 8 0 16 49 20 85 6z m995 -1 c0
-12 -28 -25 -36 -17 -9 9 6 27 22 27 8 0 14 -5 14 -10z m-951 -42 c5 -13 28
-81 51 -153 22 -71 56 -163 75 -204 19 -40 32 -77 29 -82 -3 -5 -25 -9 -50 -9
-29 0 -51 -6 -62 -17 -16 -16 -16 -16 0 -11 34 13 89 20 113 14 15 -4 37 -26
59 -60 19 -30 60 -83 90 -120 63 -74 58 -79 -36 -41 -34 14 -63 23 -65 21 -2
-2 16 -12 42 -21 45 -18 76 -42 39 -32 -39 11 -110 17 -89 8 16 -8 12 -10 -20
-10 -44 -1 -91 19 -88 37 2 6 -6 14 -17 17 -11 4 -33 17 -49 31 -24 20 -28 21
-25 7 3 -10 22 -29 42 -42 20 -14 31 -26 24 -29 -23 -7 -110 29 -151 65 -44
37 -48 52 -9 33 18 -9 17 -7 -5 11 l-28 21 23 27 23 26 -27 -24 c-23 -20 -32
-22 -50 -14 -59 27 -249 193 -221 193 6 0 30 -7 53 -15 23 -8 48 -15 54 -14 6
0 -17 10 -51 23 -93 34 -111 51 -144 123 -34 75 -36 94 -11 115 28 25 106 61
109 51 10 -29 102 -174 157 -248 48 -62 60 -85 48 -86 -9 0 -1 -5 18 -12 25
-9 41 -23 55 -52 27 -51 74 -125 80 -125 3 0 -6 18 -20 40 -41 65 -31 67 46 9
49 -36 102 -70 89 -56 -3 3 -33 26 -68 51 -35 26 -60 51 -57 56 3 6 -2 10 -13
10 -10 0 -29 11 -42 25 l-23 25 34 1 34 1 -33 8 c-40 9 -36 5 -56 60 -14 40
-15 19 0 -27 9 -27 -91 80 -135 146 -63 94 -102 168 -96 183 4 9 23 20 44 27
49 14 48 14 54 -9 4 -14 14 -20 35 -20 29 0 31 -3 37 -47 10 -70 16 -77 10
-10 -5 56 -5 57 20 57 22 0 25 4 25 35 0 30 4 35 28 41 15 3 32 7 37 9 31 10
56 3 64 -17z m930 -5 c0 -10 -4 -27 -9 -38 -7 -16 -9 -13 -9 18 -1 20 4 37 9
37 6 0 10 -8 9 -17z m-1465 -90 c4 -16 9 -36 12 -45 10 -34 -16 -18 -36 22
-25 48 -25 50 -1 50 12 0 21 -10 25 -27z m76 -3 c-46 -31 -53 -30 -65 8 -6 21
-4 22 52 22 l58 0 -45 -30z m1740 -238 c0 -4 -29 -37 -65 -72 -71 -71 -81 -72
-35 -5 40 59 100 105 100 77z m-1467 -211 c26 -18 47 -38 47 -46 0 -8 -3 -15
-6 -15 -21 0 -204 163 -204 182 0 5 26 -13 58 -40 31 -27 78 -63 105 -81z
m885 -136 c-15 -13 -47 -27 -72 -30 -83 -13 -82 0 4 31 47 17 87 29 90 27 3
-3 -7 -15 -22 -28z m-243 -75 c4 -6 -5 -10 -20 -10 -15 0 -24 4 -20 10 3 6 12
10 20 10 8 0 17 -4 20 -10z"/>
<path d="M2598 3273 c7 -3 16 -2 19 1 4 3 -2 6 -13 5 -11 0 -14 -3 -6 -6z"/>
<path d="M2530 3250 c8 -5 20 -10 25 -10 6 0 3 5 -5 10 -8 5 -19 10 -25 10 -5
0 -3 -5 5 -10z"/>
<path d="M2332 3215 c0 -16 2 -22 5 -12 2 9 2 23 0 30 -3 6 -5 -1 -5 -18z"/>
<path d="M2610 3216 c0 -3 14 -12 30 -21 17 -9 30 -13 30 -11 0 3 -13 12 -30
21 -16 9 -30 13 -30 11z"/>
<path d="M2786 3170 c4 -8 16 -27 26 -42 25 -36 14 -57 -16 -30 -11 10 -37 29
-56 41 -34 22 -34 22 -10 1 14 -12 40 -34 59 -48 67 -54 82 -76 59 -85 -8 -3
-6 -6 5 -6 10 -1 25 -15 33 -33 9 -20 13 -24 10 -10 -7 34 9 27 53 -25 76 -90
83 -98 55 -58 -15 22 -40 55 -56 73 -16 18 -26 37 -23 43 4 5 0 9 -9 9 -17 0
-66 55 -66 75 0 7 10 20 23 29 l22 17 -24 -12 c-26 -12 -28 -11 -74 52 -10 13
-15 17 -11 9z"/>
<path d="M2322 3140 c0 -19 2 -27 5 -17 2 9 2 25 0 35 -3 9 -5 1 -5 -18z"/>
<path d="M2413 3125 c0 -22 2 -30 4 -17 2 12 2 30 0 40 -3 9 -5 -1 -4 -23z"/>
<path d="M2309 3064 c0 -5 -2 -24 -5 -42 -3 -24 0 -32 8 -29 7 2 12 14 10 25
-3 20 1 22 47 22 53 0 67 -15 29 -29 l-22 -8 22 -5 c20 -6 22 -12 22 -84 0
-42 2 -75 5 -73 2 3 5 49 6 102 l1 97 36 0 c19 0 33 3 29 6 -3 3 -41 6 -84 6
-42 -1 -83 4 -90 10 -7 6 -13 7 -14 2z"/>
<path d="M2187 3043 c18 -2 50 -2 70 0 21 2 7 4 -32 4 -38 0 -55 -2 -38 -4z"/>
<path d="M2173 3013 c15 -2 39 -2 55 0 15 2 2 4 -28 4 -30 0 -43 -2 -27 -4z"/>
<path d="M2483 3013 c9 -2 25 -2 35 0 9 3 1 5 -18 5 -19 0 -27 -2 -17 -5z"/>
<path d="M2788 3013 c6 -2 18 -2 25 0 6 3 1 5 -13 5 -14 0 -19 -2 -12 -5z"/>
<path d="M1828 3003 c7 -3 16 -2 19 1 4 3 -2 6 -13 5 -11 0 -14 -3 -6 -6z"/>
<path d="M2948 2983 c6 -2 18 -2 25 0 6 3 1 5 -13 5 -14 0 -19 -2 -12 -5z"/>
<path d="M3005 2970 c11 -5 27 -9 35 -9 9 0 8 4 -5 9 -11 5 -27 9 -35 9 -9 0
-8 -4 5 -9z"/>
<path d="M1905 2940 c-4 -17 -5 -34 -2 -36 2 -3 7 10 11 27 8 42 0 50 -9 9z"/>
<path d="M1975 2930 c-9 -16 -13 -30 -11 -30 3 0 12 14 21 30 9 17 13 30 11
30 -3 0 -12 -13 -21 -30z"/>
<path d="M2303 2925 c0 -22 2 -30 4 -17 2 12 2 30 0 40 -3 9 -5 -1 -4 -23z"/>
<path d="M2630 2947 c0 -4 7 -22 16 -39 9 -18 39 -97 66 -177 27 -80 46 -130
42 -111 -15 78 -122 361 -124 327z"/>
<path d="M2911 2884 c0 -11 3 -14 6 -6 3 7 2 16 -1 19 -3 4 -6 -2 -5 -13z"/>
<path d="M1892 2870 c0 -14 2 -19 5 -12 2 6 2 18 0 25 -3 6 -5 1 -5 -13z"/>
<path d="M2921 2844 c0 -11 3 -14 6 -6 3 7 2 16 -1 19 -3 4 -6 -2 -5 -13z"/>
<path d="M1920 2829 c-7 -11 -10 -23 -7 -25 2 -2 9 7 15 21 14 30 7 33 -8 4z"/>
<path d="M1876 2766 c-4 -38 -14 -87 -22 -109 -17 -49 -17 -52 -1 -35 7 7 20
40 29 73 9 33 20 69 24 79 5 13 4 17 -4 12 -6 -4 -12 4 -14 21 -2 16 -7 -1
-12 -41z"/>
<path d="M2293 2775 c0 -22 2 -30 4 -17 2 12 2 30 0 40 -3 9 -5 -1 -4 -23z"/>
<path d="M2932 2790 c0 -14 2 -19 5 -12 2 6 2 18 0 25 -3 6 -5 1 -5 -13z"/>
<path d="M3071 2765 c12 -22 26 -44 32 -50 15 -16 -20 48 -38 70 -9 11 -7 2 6
-20z"/>
<path d="M2942 2725 c0 -16 2 -22 5 -12 2 9 2 23 0 30 -3 6 -5 -1 -5 -18z"/>
<path d="M3190 2660 c-9 -6 -10 -10 -3 -10 6 0 15 5 18 10 8 12 4 12 -15 0z"/>
<path d="M3301 2654 c0 -11 3 -14 6 -6 3 7 2 16 -1 19 -3 4 -6 -2 -5 -13z"/>
<path d="M1570 2630 c8 -5 20 -10 25 -10 6 0 3 5 -5 10 -8 5 -19 10 -25 10 -5
0 -3 -5 5 -10z"/>
<path d="M3025 2600 c-13 -5 -14 -9 -5 -9 8 0 24 4 35 9 13 5 14 9 5 9 -8 0
-24 -4 -35 -9z"/>
<path d="M1678 2593 c7 -3 16 -2 19 1 4 3 -2 6 -13 5 -11 0 -14 -3 -6 -6z"/>
<path d="M1718 2583 c7 -3 16 -2 19 1 4 3 -2 6 -13 5 -11 0 -14 -3 -6 -6z"/>
<path d="M2883 2563 c9 -2 23 -2 30 0 6 3 -1 5 -18 5 -16 0 -22 -2 -12 -5z"/>
<path d="M3241 1844 c0 -11 3 -14 6 -6 3 7 2 16 -1 19 -3 4 -6 -2 -5 -13z"/>
<path d="M2273 1755 c0 -33 2 -45 4 -27 2 18 2 45 0 60 -2 15 -4 0 -4 -33z"/>
<path d="M2272 1588 l-2 -97 -27 -4 -28 -4 29 -2 c23 -1 27 -5 23 -20 -3 -11
1 -22 9 -25 16 -6 29 10 14 19 -20 13 2 25 46 25 32 0 44 -4 44 -15 0 -8 -8
-15 -17 -15 -15 0 -15 -2 2 -14 21 -15 51 1 34 19 -18 18 -8 25 39 27 l47 1
-42 4 c-24 2 -43 9 -43 15 0 7 -5 6 -14 -1 -8 -7 -34 -11 -58 -9 l-43 3 -6 95
-5 95 -2 -97z"/>
<path d="M2801 1624 c0 -11 3 -14 6 -6 3 7 2 16 -1 19 -3 4 -6 -2 -5 -13z"/>
<path d="M2393 1565 c0 -22 2 -30 4 -17 2 12 2 30 0 40 -3 9 -5 -1 -4 -23z"/>
<path d="M2791 1574 c0 -11 3 -14 6 -6 3 7 2 16 -1 19 -3 4 -6 -2 -5 -13z"/>
<path d="M2781 1534 c0 -11 3 -14 6 -6 3 7 2 16 -1 19 -3 4 -6 -2 -5 -13z"/>
<path d="M2888 1493 c7 -3 16 -2 19 1 4 3 -2 6 -13 5 -11 0 -14 -3 -6 -6z"/>
<path d="M2828 1483 c6 -2 18 -2 25 0 6 3 1 5 -13 5 -14 0 -19 -2 -12 -5z"/>
<path d="M2282 1370 c0 -19 2 -27 5 -17 2 9 2 25 0 35 -3 9 -5 1 -5 -18z"/>
<path d="M2372 1355 c0 -16 2 -22 5 -12 2 9 2 23 0 30 -3 6 -5 -1 -5 -18z"/>
<path d="M2362 1280 c0 -14 2 -19 5 -12 2 6 2 18 0 25 -3 6 -5 1 -5 -13z"/>
<path d="M1762 1710 c0 -14 2 -19 5 -12 2 6 2 18 0 25 -3 6 -5 1 -5 -13z"/>
<path d="M1771 1654 c0 -11 3 -14 6 -6 3 7 2 16 -1 19 -3 4 -6 -2 -5 -13z"/>
<path d="M1781 1614 c0 -11 3 -14 6 -6 3 7 2 16 -1 19 -3 4 -6 -2 -5 -13z"/>
<path d="M1678 1523 c7 -3 16 -2 19 1 4 3 -2 6 -13 5 -11 0 -14 -3 -6 -6z"/>
<path d="M1718 1513 c7 -3 16 -2 19 1 4 3 -2 6 -13 5 -11 0 -14 -3 -6 -6z"/>
<path d="M1923 1473 c9 -2 23 -2 30 0 6 3 -1 5 -18 5 -16 0 -22 -2 -12 -5z"/>
<path d="M1880 1295 c14 -8 30 -14 35 -14 6 0 -1 6 -15 14 -14 8 -29 14 -35
14 -5 0 1 -6 15 -14z"/>
<path d="M2040 1305 c0 -2 18 -14 40 -25 22 -11 40 -18 40 -15 0 2 -18 14 -40
25 -22 11 -40 18 -40 15z"/>
<path d="M2038 1233 c7 -3 16 -2 19 1 4 3 -2 6 -13 5 -11 0 -14 -3 -6 -6z"/>
<path d="M2078 1223 c7 -3 16 -2 19 1 4 3 -2 6 -13 5 -11 0 -14 -3 -6 -6z"/>
<path d="M852 2443 l3 -58 103 -3 c56 -1 102 -4 102 -5 0 -1 -24 -64 -54 -140
l-54 -137 32 -6 c18 -3 48 -4 66 -2 34 3 36 6 77 103 23 55 60 146 82 203 l39
102 -199 0 -200 0 3 -57z"/>
<path d="M3642 2448 l3 -53 198 -3 197 -2 0 55 0 55 -201 0 -200 0 3 -52z"/>
<path d="M3780 2060 l0 -210 59 0 60 0 6 53 c3 28 5 122 3 207 l-3 155 -62 3
-63 3 0 -211z"/>
<path d="M885 1933 c-9 -20 -18 -47 -21 -60 l-6 -23 196 0 196 0 0 60 0 60
-175 0 -175 0 -15 -37z"/>
</g>
</svg>
